<svg width="29" height="34" viewBox="0 0 29 34" fill="none" xmlns="http://www.w3.org/2000/svg">
<path d="M14.2954 11.6608L13.3105 11.0557V22.115L14.2954 21.5627L15.3366 22.1607V11.0311L14.2954 11.6608ZM12.1708 26.1848L14.3798 24.9607L16.4482 26.1461V27.7114L14.3306 26.4416L12.1708 27.6376V26.1848ZM6.18038 26.3044L10.3768 23.814V25.2104L7.29193 27.022L6.18038 26.3044ZM18.2034 25.0838L18.1964 23.7366L22.4949 26.2728L21.3657 26.9411L18.2034 25.0838ZM21.0808 20.015V13.2261L24.3346 11.309L26.8039 12.6844V23.5677L21.0808 20.015ZM1.81155 12.6879L4.31606 11.2316L7.58389 13.1979V19.9657L1.81155 23.617V12.6879ZM12.1708 8.92056L14.3798 10.2397L16.4482 8.96629V12.4065L21.4255 9.508L22.6672 10.2115L19.2411 12.2623V20.9471L25.4145 24.63L24.2853 25.2984L18.1999 21.612V12.8884L16.4482 13.905V24.0743L14.2919 22.8853L12.2165 24.1094V14.021L10.4261 12.8989V21.6894L4.41104 25.2949L3.36983 24.7004L9.29343 20.9894V12.213L6.01857 10.1728L7.21806 9.51503L12.1567 12.4979L12.1708 8.92056ZM16.4447 5.33264V6.93314L14.3376 8.16429L12.1708 6.8452V5.41003L14.2919 6.56379L16.4447 5.33264ZM14.3341 0L5.77585 4.95626L10.3944 7.91102V9.30046L4.60802 5.60701L0 8.29795V24.7707L14.2884 33.0652L28.5732 24.813V8.29444L24.3099 5.82158L18.207 9.3286L18.2386 7.9673L23.1351 5.11807L14.3376 0H14.3341Z" fill="white"/>
</svg>
