<svg width="115" height="34" viewBox="0 0 115 34" fill="none" xmlns="http://www.w3.org/2000/svg">
<g clip-path="url(#clip0)">
<path d="M14.2954 11.6608L13.3105 11.0557V22.115L14.2954 21.5627L15.3366 22.1607V11.0311L14.2954 11.6608ZM12.1708 26.1848L14.3798 24.9607L16.4482 26.1461V27.7114L14.3306 26.4416L12.1708 27.6376V26.1848V26.1848ZM6.18037 26.3044L10.3768 23.814V25.2104L7.29193 27.022L6.18037 26.3044ZM18.2034 25.0838L18.1964 23.7366L22.4949 26.2728L21.3657 26.9411L18.2034 25.0838ZM21.0808 20.015V13.2261L24.3346 11.309L26.8039 12.6844V23.5677L21.0808 20.015ZM1.81155 12.6879L4.31606 11.2316L7.58389 13.1979V19.9657L1.81155 23.617V12.6879ZM12.1708 8.92056L14.3798 10.2397L16.4482 8.96629V12.4065L21.4255 9.508L22.6672 10.2115L19.2411 12.2623V20.9471L25.4145 24.63L24.2853 25.2984L18.1999 21.612V12.8884L16.4482 13.905V24.0743L14.2919 22.8853L12.2165 24.1094V14.021L10.4261 12.8989V21.6894L4.41104 25.2949L3.36983 24.7004L9.29343 20.9894V12.213L6.01857 10.1728L7.21806 9.51503L12.1567 12.4979L12.1708 8.92056ZM16.4447 5.33264V6.93314L14.3376 8.16429L12.1708 6.8452V5.41003L14.2919 6.56379L16.4447 5.33264ZM14.3341 0L5.77585 4.95626L10.3944 7.91102V9.30046L4.60802 5.60701L0 8.29795V24.7707L14.2884 33.0652L28.5732 24.813V8.29444L24.3099 5.82158L18.207 9.3286L18.2386 7.9673L23.1351 5.11807L14.3376 0H14.3341Z" fill="white"/>
<path d="M46.1963 7.0668L44.5289 10.6969L42.9601 7.0668H40.0652L43.2556 13.0994V16.8281H45.8551V12.9552L49.042 7.0668H46.1963Z" fill="white"/>
<path fill-rule="evenodd" clip-rule="evenodd" d="M53.4214 11.0874V13.0748H55.1133V14.6437C55.1133 14.6437 52.8375 15.0763 52.2711 13.9577C51.5043 12.4522 51.5887 10.6758 52.6158 9.61706C53.1787 9.03314 54.5716 8.63566 56.5133 9.54319L57.3962 7.48189C57.3962 7.48189 52.4013 5.43818 50.0375 8.61103C47.8988 11.4814 49.7103 15.502 50.8465 16.0894C51.9405 16.6557 53.6852 17.5351 57.6143 16.311V11.0874H53.4214Z" fill="white"/>
<path fill-rule="evenodd" clip-rule="evenodd" d="M63.2565 11.0874V13.0748H64.9485V14.6437C64.9485 14.6437 62.6726 15.0763 62.1062 13.9577C61.3394 12.4522 61.4238 10.6758 62.451 9.61706C63.0138 9.03314 64.4067 8.63566 66.3484 9.54319L67.2314 7.48189C67.2314 7.48189 62.2364 5.43818 59.8726 8.61103C57.7339 11.4814 59.549 15.502 60.6816 16.0894C61.7756 16.6557 63.5203 17.5351 67.4495 16.311V11.0874H63.2565Z" fill="white"/>
<path fill-rule="evenodd" clip-rule="evenodd" d="M77.7243 11.3336C77.6504 9.75423 76.8379 7.0668 73.3097 7.0668H69.4826V16.8281H72.6238C72.6238 16.8281 75.4554 16.7859 76.5213 15.2839C77.3936 14.0562 77.7982 12.9165 77.7243 11.3336ZM74.2419 14.0914C73.2886 14.7597 72.1102 14.605 72.1102 14.605V9.16328C72.5886 9.23715 73.7178 8.94167 74.3158 9.60297C75.6841 11.1155 74.8575 13.6623 74.2419 14.0914Z" fill="white"/>
<path fill-rule="evenodd" clip-rule="evenodd" d="M84.369 12.5577C84.369 12.5577 86.3107 11.615 86.0609 9.54317C85.8147 7.47132 84.2459 7.0668 82.3815 7.0668H78.9238V16.8281H81.5479V13.2226H82.2831L84.3444 16.8281H87.285L84.369 12.5577ZM83.4614 9.93714C83.3911 11.2246 82.3112 11.2351 82.3112 11.2351L81.576 11.2597V9.01554L82.3112 8.98036C82.8881 8.98036 83.4966 9.34619 83.4614 9.93714Z" fill="white"/>
<path fill-rule="evenodd" clip-rule="evenodd" d="M94.4503 7.0668H90.8448L87.6825 16.8281H90.5986L91.0664 14.9884H94.278L94.7915 16.8281H97.6126L94.4503 7.0668ZM91.6257 12.804L92.6845 8.66026L93.7538 12.804H91.6257Z" fill="white"/>
<path fill-rule="evenodd" clip-rule="evenodd" d="M103.202 11.1613C102.073 10.6794 100.916 10.1447 100.997 9.83516C101.077 9.52913 100.55 8.15727 104.307 9.61707L105.091 7.50652C105.091 7.50652 99.3961 5.28693 98.3971 9.09998C98.3971 9.09998 97.9609 10.7568 99.1322 11.7487C100.163 12.6703 101.714 13.0854 102.073 13.4407C102.435 13.7959 102.558 13.9789 102.368 14.4221C102.178 14.8618 100.363 14.999 98.274 13.9578V16.311C98.274 16.311 101.686 17.9537 104.356 15.8221C105.232 15.1221 105.837 12.2869 103.202 11.1613Z" fill="white"/>
<path fill-rule="evenodd" clip-rule="evenodd" d="M112.425 7.0668V10.6477H109.238V7.0668H106.663V16.8281H109.238V12.7688H112.425V16.8281H115V7.0668H112.425Z" fill="white"/>
<path d="M41.7008 21.6823H44.5641V22.2452H42.3023V23.5678H44.4058V24.1306H42.3023V25.5517H44.6767V26.1145H41.7008V21.6823V21.6823Z" fill="white"/>
<path d="M52.8164 23.7859L51.3249 21.6823H52.0953L53.249 23.3848L54.3887 21.6823H55.1415L53.6641 23.7823L55.2927 26.118H54.5048L53.2314 24.1939L51.9546 26.118H51.2088L52.8164 23.7859Z" fill="white"/>
<path d="M61.8178 21.6823H63.3761C63.661 21.6823 63.8932 21.721 64.0796 21.7984C64.2661 21.8758 64.4068 21.9743 64.5158 22.0939C64.6213 22.2135 64.6952 22.3472 64.7374 22.4949C64.7796 22.6426 64.8007 22.7869 64.8007 22.924C64.8007 23.0612 64.7796 23.2055 64.7374 23.3532C64.6952 23.5009 64.6213 23.6346 64.5158 23.7542C64.4103 23.8738 64.2661 23.9723 64.0796 24.0497C63.8932 24.1271 63.661 24.1657 63.3761 24.1657H62.4193V26.1215H61.8178V21.6823ZM62.4193 23.6346H63.2073C63.3234 23.6346 63.4394 23.624 63.5555 23.6065C63.6716 23.5889 63.7736 23.5537 63.8615 23.5044C63.9495 23.4552 64.0233 23.3813 64.0761 23.2899C64.1289 23.1949 64.157 23.0753 64.157 22.924C64.157 22.7728 64.1289 22.6532 64.0761 22.5582C64.0233 22.4632 63.9495 22.3929 63.8615 22.3401C63.7701 22.2909 63.6681 22.2557 63.5555 22.2381C63.4394 22.2205 63.3234 22.21 63.2073 22.21H62.4193V23.6346Z" fill="white"/>
<path d="M72.0504 21.6823H72.6519V25.5552H74.6886V26.118H72.0504V21.6823Z" fill="white"/>
<path d="M83.4298 26.2306C83.0921 26.2306 82.779 26.1708 82.4976 26.0512C82.2127 25.9316 81.97 25.7698 81.7695 25.5587C81.5655 25.3512 81.4072 25.1049 81.2946 24.82C81.1785 24.5351 81.1223 24.2291 81.1223 23.8984C81.1223 23.5678 81.1785 23.2617 81.2946 22.9768C81.4107 22.6919 81.569 22.4456 81.7695 22.2381C81.9735 22.0306 82.2162 21.8652 82.4976 21.7456C82.7825 21.6261 83.0921 21.5663 83.4298 21.5663C83.7675 21.5663 84.0805 21.6261 84.3619 21.7456C84.6469 21.8652 84.8896 22.0271 85.0901 22.2381C85.2906 22.4492 85.4524 22.6919 85.5649 22.9768C85.681 23.2617 85.7373 23.5678 85.7373 23.8984C85.7373 24.2291 85.681 24.5351 85.5649 24.82C85.4489 25.1049 85.2906 25.3512 85.0901 25.5587C84.8896 25.7662 84.6433 25.9316 84.3619 26.0512C84.0805 26.1708 83.7675 26.2306 83.4298 26.2306ZM83.4298 25.6642C83.683 25.6642 83.9152 25.6185 84.1192 25.5235C84.3232 25.4286 84.4991 25.3019 84.6469 25.1436C84.7946 24.9853 84.9072 24.7989 84.9845 24.5843C85.0619 24.3698 85.1041 24.1411 85.1041 23.8984C85.1041 23.6557 85.0654 23.427 84.9845 23.2125C84.9036 22.9979 84.7911 22.8115 84.6469 22.6532C84.4991 22.4949 84.3268 22.3683 84.1192 22.2733C83.9152 22.1783 83.6866 22.1326 83.4298 22.1326C83.1765 22.1326 82.9444 22.1783 82.7403 22.2733C82.5363 22.3683 82.3604 22.4949 82.2127 22.6532C82.065 22.8115 81.9524 22.9979 81.875 23.2125C81.7941 23.427 81.7554 23.6557 81.7554 23.8984C81.7554 24.1411 81.7941 24.3698 81.875 24.5843C81.9559 24.7989 82.0685 24.9853 82.2127 25.1436C82.3604 25.3019 82.5363 25.4286 82.7403 25.5235C82.9479 25.6185 83.1765 25.6642 83.4298 25.6642Z" fill="white"/>
<path d="M91.9177 21.6823H93.476C93.7609 21.6823 93.9931 21.721 94.1795 21.7984C94.3659 21.8758 94.5066 21.9743 94.6157 22.0939C94.7212 22.2135 94.7951 22.3472 94.8373 22.4949C94.8795 22.6426 94.9006 22.7869 94.9006 22.924C94.9006 23.0647 94.876 23.2019 94.8267 23.3356C94.7775 23.4693 94.7036 23.5853 94.6122 23.6909C94.5172 23.7964 94.4046 23.8879 94.2674 23.9617C94.1302 24.0356 93.979 24.0778 93.8137 24.0954L95.073 26.118H94.3202L93.1911 24.1622H92.5192V26.118H91.9177V21.6823ZM92.5192 23.6346H93.3071C93.4232 23.6346 93.5393 23.624 93.6554 23.6065C93.7715 23.5889 93.8735 23.5537 93.9614 23.5044C94.0493 23.4552 94.1232 23.3813 94.176 23.2899C94.2287 23.1949 94.2569 23.0753 94.2569 22.924C94.2569 22.7728 94.2287 22.6532 94.176 22.5582C94.1232 22.4632 94.0493 22.3929 93.9614 22.3401C93.8699 22.2909 93.7679 22.2557 93.6554 22.2381C93.5393 22.2205 93.4232 22.21 93.3071 22.21H92.5192V23.6346Z" fill="white"/>
<path d="M102.066 21.6823H104.929V22.2452H102.667V23.5678H104.771V24.1306H102.667V25.5517H105.042V26.1145H102.066V21.6823Z" fill="white"/>
<path d="M111.686 21.6823H113.245C113.53 21.6823 113.762 21.721 113.948 21.7984C114.135 21.8758 114.275 21.9743 114.384 22.0939C114.49 22.2135 114.564 22.3472 114.606 22.4949C114.648 22.6426 114.669 22.7869 114.669 22.924C114.669 23.0647 114.645 23.2019 114.596 23.3356C114.546 23.4693 114.472 23.5853 114.381 23.6909C114.286 23.7964 114.173 23.8879 114.036 23.9617C113.899 24.0356 113.748 24.0778 113.582 24.0954L114.842 26.118H114.089L112.96 24.1622H112.288V26.118H111.686V21.6823ZM112.288 23.6346H113.076C113.192 23.6346 113.308 23.624 113.424 23.6065C113.54 23.5889 113.642 23.5537 113.73 23.5044C113.818 23.4552 113.892 23.3813 113.945 23.2899C113.998 23.1949 114.026 23.0753 114.026 22.924C114.026 22.7728 113.998 22.6532 113.945 22.5582C113.892 22.4632 113.818 22.3929 113.73 22.3401C113.639 22.2909 113.537 22.2557 113.424 22.2381C113.308 22.2205 113.192 22.21 113.076 22.21H112.288V23.6346Z" fill="white"/>
</g>
<defs>
<clipPath id="clip0">
<rect width="115" height="33.0652" fill="white"/>
</clipPath>
</defs>
</svg>
